<svg xmlns="http://www.w3.org/2000/svg" viewBox="0 0 30 30" width="30" height="30" preserveAspectRatio="xMidYMid meet"
    style="width: 100%; height: 100%; transform: translate3d(0px, 0px, 0px);">
    <defs>
        <clipPath id="__lottie_element_2">
            <rect width="30" height="30" x="0" y="0"></rect>
        </clipPath>
        <filter id="__lottie_element_7" filterUnits="objectBoundingBox" x="0%" y="0%" width="100%" height="100%">
            <feComponentTransfer in="SourceGraphic">
                <feFuncA type="table" tableValues="1.0 0.0"></feFuncA>
            </feComponentTransfer>
        </filter>
        <mask id="__lottie_element_6" mask-type="alpha">
            <g filter="url(#__lottie_element_7)">
                <rect width="30" height="30" x="0" y="0" fill="#ffffff" opacity="0"></rect>
                <g transform="matrix(1,0,0,1,9.75,12.75)" opacity="1" style="display: block;">
                    <g opacity="1" transform="matrix(1,0,0,1,1.25,1.25)">
                        <path fill="rgb(255,255,255)" fill-opacity="1"
                            d=" M0,1 C-0.5519999861717224,1 -1,0.5519999861717224 -1,0 C-1,-0.5519999861717224 -0.5519999861717224,-1 0,-1 C0.5519999861717224,-1 1,-0.5519999861717224 1,0 C1,0.5519999861717224 0.5519999861717224,1 0,1z">
                        </path>
                    </g>
                    <g opacity="1" transform="matrix(1,0,0,1,9.25,1.25)">
                        <path fill="rgb(255,255,255)" fill-opacity="1"
                            d=" M0,1 C-0.5519999861717224,1 -1,0.5519999861717224 -1,0 C-1,-0.5519999861717224 -0.5519999861717224,-1 0,-1 C0.5519999861717224,-1 1,-0.5519999861717224 1,0 C1,0.5519999861717224 0.5519999861717224,1 0,1z">
                        </path>
                    </g>
                </g>
            </g>
        </mask>
    </defs>
    <g clip-path="url(#__lottie_element_2)">
        <g mask="url(#__lottie_element_6)" style="display: block;">
            <g transform="matrix(1,0,0,1,7.75,2.75)" opacity="1">
                <g opacity="1" transform="matrix(1,0,0,1,7.25,9.244000434875488)">
                    <path fill="#20c997" fill-opacity="1"
                        d=" M-6.245999813079834,6.5960001945495605 C-6.245999813079834,6.5960001945495605 -4.539000034332275,7.59499979019165 -4.539000034332275,7.59499979019165 C-4.5269999504089355,7.563000202178955 -4.51200008392334,7.5269999504089355 -4.5,7.494999885559082 C-4.317999839782715,6.989999771118164 -3.687000036239624,6.822000026702881 -3.2820000648498535,7.173999786376953 C-3.2820000648498535,7.173999786376953 -3.2750000953674316,7.178999900817871 -3.2750000953674316,7.178999900817871 C-3.0920000076293945,7.3379998207092285 -2.996999979019165,7.576000213623047 -3.015000104904175,7.818999767303467 C-3.0250000953674316,7.97599983215332 -3.0480000972747803,8.126999855041504 -3.071000099182129,8.279000282287598 C-3.071000099182129,8.279000282287598 -1.2209999561309814,8.994000434875488 -1.2209999561309814,8.994000434875488 C-1.218999981880188,8.982999801635742 -1.215000033378601,8.972999572753906 -1.2130000591278076,8.961000442504883 C-1.097000002861023,8.402000427246094 -0.5690000057220459,8.008999824523926 0.0020000000949949026,8.008999824523926 C0.0020000000949949026,8.008999824523926 0.02500000037252903,8.008999824523926 0.02500000037252903,8.008999824523926 C0.5809999704360962,8.008999824523926 1.0679999589920044,8.420000076293945 1.1790000200271606,8.96399974822998 C1.180999994277954,8.970999717712402 1.1829999685287476,8.977999687194824 1.184999942779541,8.986000061035156 C1.184999942779541,8.986000061035156 3.0320000648498535,8.137999534606934 3.0320000648498535,8.137999534606934 C3.0190000534057617,8.034000396728516 3.000999927520752,7.933000087738037 2.99399995803833,7.824999809265137 C2.9769999980926514,7.584000110626221 3.0910000801086426,7.3379998207092285 3.2750000953674316,7.178999900817871 C3.2750000953674316,7.178999900817871 3.2809998989105225,7.173999786376953 3.2809998989105225,7.173999786376953 C3.6619999408721924,6.8429999351501465 4.2270002365112305,6.982999801635742 4.447000026702881,7.416999816894531 C4.447000026702881,7.416999816894531 6.184999942779541,6.34499979019165 6.184999942779541,6.34499979019165 C6,5.521999835968018 5.968999862670898,4.702000141143799 5.992000102996826,4.23199987411499 C6.605000019073486,3.683000087738037 7,2.8929998874664307 7,2.00600004196167 C7,0.9390000104904175 6.434000015258789,0.006000000052154064 5.5929999351501465,-0.5260000228881836 C5.933000087738037,-1.4160000085830688 6.125,-2.365000009536743 6.125,-3.306999921798706 C6.125,-6.895999908447266 3.381999969482422,-8.994000434875488 0,-8.994000434875488 C-3.382999897003174,-8.994000434875488 -6.125,-6.895999908447266 -6.125,-3.305999994277954 C-6.125,-2.364000082015991 -5.934000015258789,-1.4149999618530273 -5.593999862670898,-0.5249999761581421 C-6.434999942779541,0.006000000052154064 -7,0.9390000104904175 -7,2.00600004196167 C-7,2.8929998874664307 -6.605000019073486,3.683000087738037 -5.992000102996826,4.232999801635742 C-5.966000080108643,4.75 -6.002999782562256,5.691999912261963 -6.245999813079834,6.5960001945495605z">
                    </path>
                </g>
            </g>
        </g>
        <g transform="matrix(1,0,0,1,-3.0000009536743164,6)" opacity="1" style="display: block;">
            <g opacity="1" transform="matrix(1,0,0,1,9.00100040435791,10.586999893188477)">
                <path stroke-linecap="round" stroke-linejoin="miter" fill-opacity="0" stroke-miterlimit="10"
                    stroke="#20c997" stroke-opacity="1" stroke-width="2"
                    d=" M-1.860056757926941,-6.55515718460083 C-1.0717591047286987,-4.572080612182617 -0.7562614679336548,-2.839057683944702 -2.5767250061035156,0.04600000008940697 C-4.269985675811768,2.738258123397827 -2.894472599029541,5.91756010055542 -0.40447255969047546,6.2535600662231445 C0.9255274534225464,6.432559967041016 2.63100004196167,4.979000091552734 3.437999963760376,2.9709999561309814 C3.7890000343322754,2.0999999046325684 4.000999927520752,0.9670000076293945 4.000999927520752,-0.48100000619888306">
                </path>
            </g>
            <g opacity="1" transform="matrix(1,0,0,1,10.763999938964844,16.79800033569336)">
                <path stroke-linecap="round" stroke-linejoin="miter" fill-opacity="0" stroke-miterlimit="10"
                    stroke="#20c997" stroke-opacity="1" stroke-width="2"
                    d=" M-5.71993350982666,5.4974365234375 C-3.4531946182250977,1.517274022102356 1.9792457818984985,6.3170247077941895 4.843999862670898,-1.3370000123977661 C5.122339248657227,-2.0819854736328125 5.267000198364258,-2.9539999961853027 5.326000213623047,-3.938999891281128">
                </path>
            </g>
            <g opacity="1" transform="matrix(1,0,0,1,26.9689998626709,10.581999778747559)">
                <path stroke-linecap="round" stroke-linejoin="miter" fill-opacity="0" stroke-miterlimit="10"
                    stroke="#20c997" stroke-opacity="1" stroke-width="2"
                    d=" M2.085419178009033,-8.96143627166748 C3.4642066955566406,-6.143617630004883 3.6561269760131836,-3.4524521827697754 3.534965991973877,-0.6809772253036499 C3.3713388442993164,1.873358964920044 2.579965114593506,3.447178840637207 0.48930737376213074,4.793704032897949 C-0.5508519411087036,5.462910175323486 -2.450000047683716,5.054999828338623 -3.2880001068115234,3.318000078201294 C-3.7269999980926514,2.4089999198913574 -4.000999927520752,1.1699999570846558 -4.000999927520752,-0.4749999940395355">
                </path>
            </g>
            <g opacity="1" transform="matrix(1,0,0,1,25.20599937438965,16.79599952697754)">
                <path stroke-linecap="round" stroke-linejoin="miter" fill-opacity="0" stroke-miterlimit="10"
                    stroke="#20c997" stroke-opacity="1" stroke-width="2"
                    d=" M6.227449893951416,3.808218240737915 C2.018141508102417,0.558963418006897 -2.931999921798706,3.937999963760376 -4.78000020980835,-1.1519999504089355 C-5.070000171661377,-1.9479999542236328 -5.261000156402588,-2.872999906539917 -5.326000213623047,-3.937999963760376">
                </path>
            </g>
        </g>
    </g>
</svg>